<svg width="40" height="40" viewBox="0 0 40 40" fill="none" xmlns="http://www.w3.org/2000/svg">
<path d="M14.9995 5H8.33284C7.44879 5 6.60094 5.35119 5.97582 5.97631C5.3507 6.60143 4.99951 7.44928 4.99951 8.33333V15M14.9995 5H31.6662C32.5502 5 33.3981 5.35119 34.0232 5.97631C34.6483 6.60143 34.9995 7.44928 34.9995 8.33333V15M14.9995 5V35M4.99951 15V31.6667C4.99951 32.5507 5.3507 33.3986 5.97582 34.0237C6.60094 34.6488 7.44879 35 8.33284 35H14.9995M4.99951 15H34.9995M34.9995 15V31.6667C34.9995 32.5507 34.6483 33.3986 34.0232 34.0237C33.3981 34.6488 32.5502 35 31.6662 35H14.9995" stroke="#C16828" stroke-width="2" stroke-linecap="round" stroke-linejoin="round"/>
</svg>
