<svg width="41" height="40" viewBox="0 0 41 40" fill="none" xmlns="http://www.w3.org/2000/svg">
<path d="M33.4992 15.3333V10.3333C33.4992 9.44928 33.148 8.60143 32.5229 7.97631C31.8978 7.35119 31.0499 7 30.1659 7H10.1659C9.2818 7 8.43395 7.35119 7.80883 7.97631C7.18371 8.60143 6.83252 9.44928 6.83252 10.3333V15.3333" stroke="#C16828" stroke-width="2" stroke-linecap="round" stroke-linejoin="round"/>
<path d="M3.49951 18.6666V26.9999C3.49951 27.884 3.8507 28.7318 4.47582 29.3569C5.10094 29.9821 5.94879 30.3333 6.83284 30.3333H33.4995C34.3836 30.3333 35.2314 29.9821 35.8565 29.3569C36.4817 28.7318 36.8328 27.884 36.8328 26.9999V18.6666C36.8328 17.7825 36.4817 16.9347 35.8565 16.3096C35.2314 15.6844 34.3836 15.3333 33.4995 15.3333C32.6155 15.3333 31.7676 15.6844 31.1425 16.3096C30.5174 16.9347 30.1662 17.7825 30.1662 18.6666V21.9999H10.1662V18.6666C10.1662 17.7825 9.81499 16.9347 9.18987 16.3096C8.56475 15.6844 7.7169 15.3333 6.83284 15.3333C5.94879 15.3333 5.10094 15.6844 4.47582 16.3096C3.8507 16.9347 3.49951 17.7825 3.49951 18.6666Z" stroke="#C16828" stroke-width="2" stroke-linecap="round" stroke-linejoin="round"/>
<path d="M6.83252 30.3333V33.6666" stroke="#C16828" stroke-width="2" stroke-linecap="round" stroke-linejoin="round"/>
<path d="M33.4995 30.3333V33.6666" stroke="#C16828" stroke-width="2" stroke-linecap="round" stroke-linejoin="round"/>
<path d="M20.166 7V22" stroke="#C16828" stroke-width="2" stroke-linecap="round" stroke-linejoin="round"/>
</svg>
