<svg width="41" height="40" viewBox="0 0 41 40" fill="none" xmlns="http://www.w3.org/2000/svg">
<path d="M30.7828 4.03553L23.4995 11.3189L20.8495 8.66887C20.225 8.04803 19.3801 7.69956 18.4995 7.69956C17.6189 7.69956 16.7741 8.04803 16.1495 8.66887L13.4995 11.3189L28.4995 26.3189L31.1495 23.6689C31.7703 23.0443 32.1188 22.1995 32.1188 21.3189C32.1188 20.4382 31.7703 19.5934 31.1495 18.9689L28.4995 16.3189L35.7828 9.03553C36.4459 8.37249 36.8184 7.47322 36.8184 6.53553C36.8184 5.59785 36.4459 4.69858 35.7828 4.03553C35.1198 3.37249 34.2205 3 33.2828 3C32.3452 3 31.4459 3.37249 30.7828 4.03553Z" stroke="#C16828" stroke-width="2" stroke-linecap="round" stroke-linejoin="round"/>
<path d="M15.1662 12.9854C11.8328 17.9854 8.49951 18.8187 3.49951 19.652L16.8328 36.3187C20.1662 34.652 26.8328 27.9854 26.8328 24.652" stroke="#C16828" stroke-width="2" stroke-linecap="round" stroke-linejoin="round"/>
<path d="M24.3327 28.8188L7.66602 24.6521" stroke="#C16828" stroke-width="2" stroke-linecap="round" stroke-linejoin="round"/>
</svg>
