<svg width="40" height="40" viewBox="0 0 40 40" fill="none" xmlns="http://www.w3.org/2000/svg">
<path d="M13.8328 17.2669C13.6179 17.2787 13.404 17.2307 13.2147 17.1285C13.0254 17.0262 12.8681 16.8736 12.7601 16.6875C12.6521 16.5013 12.5977 16.289 12.6029 16.0739C12.6081 15.8588 12.6726 15.6493 12.7895 15.4686L18.9995 5.60026C19.097 5.42454 19.2384 5.27702 19.4097 5.17198C19.5811 5.06694 19.7767 5.00796 19.9776 5.00075C20.1784 4.99354 20.3777 5.03835 20.5562 5.13083C20.7347 5.22331 20.8862 5.36033 20.9961 5.5286L27.1661 15.4336C27.2877 15.6082 27.3593 15.8128 27.3729 16.0252C27.3866 16.2376 27.342 16.4497 27.2438 16.6385C27.1456 16.8273 26.9976 16.9857 26.8159 17.0965C26.6342 17.2072 26.4256 17.2662 26.2128 17.2669H13.8328Z" stroke="#C16828" stroke-width="2" stroke-linecap="round" stroke-linejoin="round"/>
<path d="M14.9995 23.9336H6.66618C5.7457 23.9336 4.99951 24.6798 4.99951 25.6003V33.9336C4.99951 34.8541 5.7457 35.6003 6.66618 35.6003H14.9995C15.92 35.6003 16.6662 34.8541 16.6662 33.9336V25.6003C16.6662 24.6798 15.92 23.9336 14.9995 23.9336Z" stroke="#C16828" stroke-width="2" stroke-linecap="round" stroke-linejoin="round"/>
<path d="M29.1663 35.6003C32.388 35.6003 34.9997 32.9886 34.9997 29.7669C34.9997 26.5453 32.388 23.9336 29.1663 23.9336C25.9447 23.9336 23.333 26.5453 23.333 29.7669C23.333 32.9886 25.9447 35.6003 29.1663 35.6003Z" stroke="#C16828" stroke-width="2" stroke-linecap="round" stroke-linejoin="round"/>
</svg>
